{
  "accessors": [
    {
      "bufferView": 2,
      "componentType": 5126,
      "count": 5425,
      "max": [
        392.4423522949219,
        404.99761962890625,
        525.4644775390625
      ],
      "min": [
        -414.6526184082031,
        -389.8358154296875,
        3.814697265625e-06
      ],
      "type": "VEC3"
    },
    {
      "bufferView": 2,
      "byteOffset": 65100,
      "componentType": 5126,
      "count": 5425,
      "max": [
        1.0,
        1.0,
        1.0
      ],
      "min": [
        -1.0,
        -1.0,
        -1.0
      ],
      "type": "VEC3"
    },
    {
      "bufferView": 1,
      "componentType": 5126,
      "count": 5425,
      "max": [
        3.992896556854248,
        0.998317301273346
      ],
      "min": [
        -4.003028869628906,
        0.013707652688026428
      ],
      "type": "VEC2"
    },
    {
      "bufferView": 1,
      "byteOffset": 43400,
      "componentType": 5126,
      "count": 5425,
      "max": [
        0.9994999170303345,
        0.9942827224731445
      ],
      "min": [
        0.0005000000237487257,
        0.0005000000237487257
      ],
      "type": "VEC2"
    },
    {
      "bufferView": 0,
      "componentType": 5125,
      "count": 9405,
      "type": "SCALAR"
    },
    {
      "bufferView": 2,
      "byteOffset": 130200,
      "componentType": 5126,
      "count": 7586,
      "max": [
        392.4423522949219,
        404.99761962890625,
        526.5126342773438
      ],
      "min": [
        -414.6526184082031,
        -389.8358154296875,
        3.814697265625e-06
      ],
      "type": "VEC3"
    },
    {
      "bufferView": 2,
      "byteOffset": 221232,
      "componentType": 5126,
      "count": 7586,
      "max": [
        1.0,
        1.0,
        1.0
      ],
      "min": [
        -1.0,
        -1.0,
        -1.0
      ],
      "type": "VEC3"
    },
    {
      "bufferView": 1,
      "byteOffset": 86800,
      "componentType": 5126,
      "count": 7586,
      "max": [
        1.977602481842041,
        0.9996129274368286
      ],
      "min": [
        -0.9749080538749695,
        0.0005000000237487257
      ],
      "type": "VEC2"
    },
    {
      "bufferView": 1,
      "byteOffset": 147488,
      "componentType": 5126,
      "count": 7586,
      "max": [
        0.999500036239624,
        0.9942827224731445
      ],
      "min": [
        0.0005000000237487257,
        0.0005000000237487257
      ],
      "type": "VEC2"
    },
    {
      "bufferView": 0,
      "byteOffset": 37620,
      "componentType": 5125,
      "count": 12135,
      "type": "SCALAR"
    },
    {
      "bufferView": 2,
      "byteOffset": 312264,
      "componentType": 5126,
      "count": 98,
      "max": [
        388.8948669433594,
        401.5040283203125,
        58.64212417602539
      ],
      "min": [
        -411.1051330566406,
        -386.34222412109375,
        22.999011993408203
      ],
      "type": "VEC3"
    },
    {
      "bufferView": 2,
      "byteOffset": 313440,
      "componentType": 5126,
      "count": 98,
      "max": [
        0.9481905102729797,
        0.8997035622596741,
        0.9999732971191406
      ],
      "min": [
        -0.8163814544677734,
        -0.8158239126205444,
        0.26222142577171326
      ],
      "type": "VEC3"
    },
    {
      "bufferView": 1,
      "byteOffset": 208176,
      "componentType": 5126,
      "count": 98,
      "max": [
        0.9808293581008911,
        0.9829466938972473
      ],
      "min": [
        0.012987857684493065,
        0.01605839654803276
      ],
      "type": "VEC2"
    },
    {
      "bufferView": 1,
      "byteOffset": 208960,
      "componentType": 5126,
      "count": 98,
      "max": [
        0.9846484661102295,
        0.469936341047287
      ],
      "min": [
        0.003793857293203473,
        0.0005000000237487257
      ],
      "type": "VEC2"
    },
    {
      "bufferView": 0,
      "byteOffset": 86160,
      "componentType": 5125,
      "count": 336,
      "type": "SCALAR"
    }
  ],
  "asset": {
    "extras": {
      "author": "maheylah (https://sketchfab.com/maheylah)",
      "license": "CC-BY-4.0 (http://creativecommons.org/licenses/by/4.0/)",
      "source": "https://sketchfab.com/3d-models/arabic-temple-diorama-01941ce469b041138a1c9a565e07b19a",
      "title": "Arabic temple diorama"
    },
    "generator": "Sketchfab-12.94.0",
    "version": "2.0"
  },
  "bufferViews": [
    {
      "buffer": 0,
      "byteLength": 87504,
      "name": "floatBufferViews",
      "target": 34963
    },
    {
      "buffer": 0,
      "byteLength": 209744,
      "byteOffset": 87504,
      "byteStride": 8,
      "name": "floatBufferViews",
      "target": 34962
    },
    {
      "buffer": 0,
      "byteLength": 314616,
      "byteOffset": 297248,
      "byteStride": 12,
      "name": "floatBufferViews",
      "target": 34962
    }
  ],
  "buffers": [
    {
      "byteLength": 611864,
      "uri": "arabic_temple.bin"
    }
  ],
  "images": [
    {
      "uri": "02_-_Default_baseColor.png"
    },
    {
      "uri": "03_-_Default_baseColor.png"
    },
    {
      "uri": "07_-_Default_baseColor.png"
    }
  ],
  "materials": [
    {
      "doubleSided": true,
      "name": "02_-_Default",
      "pbrMetallicRoughness": {
        "baseColorTexture": {
          "index": 0
        },
        "metallicFactor": 0.0,
        "roughnessFactor": 0.8929713596497552
      }
    },
    {
      "doubleSided": true,
      "name": "03_-_Default",
      "pbrMetallicRoughness": {
        "baseColorTexture": {
          "index": 1
        },
        "metallicFactor": 0.0,
        "roughnessFactor": 0.8929713596497552
      }
    },
    {
      "doubleSided": true,
      "name": "07_-_Default",
      "pbrMetallicRoughness": {
        "baseColorTexture": {
          "index": 2
        },
        "metallicFactor": 0.0,
        "roughnessFactor": 0.8929713596497552
      }
    }
  ],
  "meshes": [
    {
      "name": "TEMPLE_02 - Default_0",
      "primitives": [
        {
          "attributes": {
            "NORMAL": 1,
            "POSITION": 0,
            "TEXCOORD_0": 2,
            "TEXCOORD_1": 3
          },
          "indices": 4,
          "material": 0,
          "mode": 4
        }
      ]
    },
    {
      "name": "TEMPLE_03 - Default_0",
      "primitives": [
        {
          "attributes": {
            "NORMAL": 6,
            "POSITION": 5,
            "TEXCOORD_0": 7,
            "TEXCOORD_1": 8
          },
          "indices": 9,
          "material": 1,
          "mode": 4
        }
      ]
    },
    {
      "name": "TEMPLE_07 - Default_0",
      "primitives": [
        {
          "attributes": {
            "NORMAL": 11,
            "POSITION": 10,
            "TEXCOORD_0": 12,
            "TEXCOORD_1": 13
          },
          "indices": 14,
          "material": 2,
          "mode": 4
        }
      ]
    }
  ],
  "nodes": [
    {
      "children": [
        1
      ],
      "matrix": [
        1.0,
        0.0,
        0.0,
        0.0,
        0.0,
        2.220446049250313e-16,
        -1.0,
        0.0,
        0.0,
        1.0,
        2.220446049250313e-16,
        0.0,
        0.0,
        0.0,
        0.0,
        1.0
      ],
      "name": "Sketchfab_model"
    },
    {
      "children": [
        2
      ],
      "matrix": [
        0.009999999776482582,
        0.0,
        0.0,
        0.0,
        0.0,
        0.0,
        0.009999999776482582,
        0.0,
        0.0,
        -0.009999999776482582,
        0.0,
        0.0,
        0.0,
        0.0,
        0.0,
        1.0
      ],
      "name": "246bd5f43074487fa7f99f1056931335.fbx"
    },
    {
      "children": [
        3
      ],
      "name": "RootNode"
    },
    {
      "children": [
        4,
        5,
        6
      ],
      "matrix": [
        1.0,
        0.0,
        0.0,
        0.0,
        0.0,
        2.220446049250313e-16,
        -1.0,
        0.0,
        0.0,
        1.0,
        2.220446049250313e-16,
        0.0,
        0.0,
        0.0,
        0.0,
        1.0
      ],
      "name": "TEMPLE"
    },
    {
      "mesh": 0,
      "name": "TEMPLE_02 - Default_0"
    },
    {
      "mesh": 1,
      "name": "TEMPLE_03 - Default_0"
    },
    {
      "mesh": 2,
      "name": "TEMPLE_07 - Default_0"
    }
  ],
  "samplers": [
    {
      "magFilter": 9729,
      "minFilter": 9987,
      "wrapS": 10497,
      "wrapT": 10497
    }
  ],
  "scene": 0,
  "scenes": [
    {
      "name": "Sketchfab_Scene",
      "nodes": [
        0
      ]
    }
  ],
  "textures": [
    {
      "sampler": 0,
      "source": 0
    },
    {
      "sampler": 0,
      "source": 1
    },
    {
      "sampler": 0,
      "source": 2
    }
  ]
}
