{
    "asset" : {
        "generator" : "Khronos glTF Blender I/O v3.2.40",
        "version" : "2.0"
    },
    "scene" : 0,
    "scenes" : [
        {
            "name" : "Scene",
            "nodes" : [
                0
            ]
        }
    ],
    "nodes" : [
        {
            "mesh" : 0,
            "name" : "Text"
        }
    ],
    "materials" : [
        {
            "doubleSided" : true,
            "name" : "Material.001",
            "pbrMetallicRoughness" : {
                "baseColorFactor" : [
                    0.800000011920929,
                    0.800000011920929,
                    0.800000011920929,
                    1
                ],
                "metallicFactor" : 0.9318181872367859,
                "roughnessFactor" : 0.08181819319725037
            }
        }
    ],
    "meshes" : [
        {
            "name" : "Text",
            "primitives" : [
                {
                    "attributes" : {
                        "POSITION" : 0,
                        "NORMAL" : 1,
                        "TANGENT" : 2,
                        "TEXCOORD_0" : 3
                    },
                    "indices" : 4,
                    "material" : 0
                }
            ]
        }
    ],
    "accessors" : [
        {
            "bufferView" : 0,
            "componentType" : 5126,
            "count" : 2949,
            "max" : [
                1.4430605173110962,
                0,
                2.009608507156372
            ],
            "min" : [
                0.007117437664419413,
                0,
                -0.5035586953163147
            ],
            "type" : "VEC3"
        },
        {
            "bufferView" : 1,
            "componentType" : 5126,
            "count" : 2949,
            "type" : "VEC3"
        },
        {
            "bufferView" : 2,
            "componentType" : 5126,
            "count" : 2949,
            "type" : "VEC4"
        },
        {
            "bufferView" : 3,
            "componentType" : 5126,
            "count" : 2949,
            "type" : "VEC2"
        },
        {
            "bufferView" : 4,
            "componentType" : 5123,
            "count" : 6564,
            "type" : "SCALAR"
        }
    ],
    "bufferViews" : [
        {
            "buffer" : 0,
            "byteLength" : 35388,
            "byteOffset" : 0
        },
        {
            "buffer" : 0,
            "byteLength" : 35388,
            "byteOffset" : 35388
        },
        {
            "buffer" : 0,
            "byteLength" : 47184,
            "byteOffset" : 70776
        },
        {
            "buffer" : 0,
            "byteLength" : 23592,
            "byteOffset" : 117960
        },
        {
            "buffer" : 0,
            "byteLength" : 13128,
            "byteOffset" : 141552
        }
    ],
    "buffers" : [
        {
            "byteLength" : 154680,
            "uri" : "logo3.bin"
        }
    ]
}
